<?xml version="1.0" encoding="UTF-8"?>
<svg id="Layer_1" xmlns="http://www.w3.org/2000/svg" version="1.1" viewBox="0 0 125.6 57.9">
  <!-- Generator: Adobe Illustrator 29.7.1, SVG Export Plug-In . SVG Version: 2.1.1 Build 8)  -->
  <defs>
    <style>
      .st0 {
        fill: #fff;
      }
    </style>
  </defs>
  <path class="st0" d="M4.9,41.9c0,.4,0,.8-.3,1.1-.2.2-.7.4-1.3.4s-1.1-.1-1.3-.4c-.2-.3-.4-.7-.3-1.1,0-.2,0-.4.1-.6,0-.2.2-.3.3-.4s.3-.2.4-.3c.2,0,.4-.2.7-.2.2,0,.4-.1.6-.2.2,0,.4-.2.6-.2.1,0,.2,0,.3-.1,0,0,0,0,.1-.1,0,0,0-.1,0-.2v2.4s0,0,0,0ZM5.7,35.1c-.5-.4-1.4-.7-2.5-.7s-1,0-1.5.2c-.4,0-.7.3-1,.5-.2.2-.4.5-.6.7-.1.3-.2.6-.2.9v.5h1.6c0-.3.1-.7.3-1,.2-.3.7-.4,1.3-.4s.5,0,.8.1c.2,0,.4.2.5.3.1,0,.2.2.3.4,0,.1,0,.3,0,.4v.4c0,.1,0,.3,0,.4,0,.1-.1.2-.2.3,0,0-.1.2-.2.2h-.2c0,.1-.2.2-.4.2-.2,0-.4.2-.7.3l-.8.3c-.3.1-.6.2-.8.3-.4.2-.8.5-1.1.8-.2.4-.4.9-.4,1.3v.9c0,.3,0,.5.1.8,0,.3.3.5.5.8.3.3.6.5,1,.6,1.1.3,2.2.3,3.3,0,.4-.1.7-.3,1-.6.2-.2.4-.5.5-.8,0-.2.1-.5.1-.8v-5.7c0-.3,0-.6-.2-.9-.1-.3-.3-.5-.6-.7"/>
  <path class="st0" d="M10.5,30.7h-1.6v13.9h1.6v-13.9Z"/>
  <path class="st0" d="M15.7,34.4c-.6,0-1.2,0-1.8.3-.4.2-.7.4-1,.7-.2.2-.3.5-.4.8,0,.2,0,.4,0,.6v7.8h1.6v-7.5c0-.1,0-.2,0-.4,0-.2.1-.3.2-.4.1-.1.3-.2.5-.3.3,0,.5-.1.8-.1h.8l.4-1.4c-.2,0-.3,0-.5,0h-.6"/>
  <path class="st0" d="M22.8,41.9c0,.4,0,.8-.3,1.1-.2.2-.7.4-1.3.4s-1.1-.1-1.3-.4c-.2-.3-.4-.7-.3-1.1,0-.2,0-.4.1-.6,0-.2.2-.3.3-.4s.3-.2.4-.3c.2,0,.4-.2.7-.2.2,0,.4-.1.6-.2.2,0,.4-.2.6-.2.1,0,.2,0,.3-.1,0,0,0,0,.1-.1,0,0,0-.1,0-.2v2.4h0ZM23.7,35.1c-.5-.5-1.4-.7-2.5-.7-.5,0-1,0-1.5.2-.4,0-.7.3-1,.5-.3.2-.5.5-.6.7-.1.3-.2.6-.2.9v.5h1.6c0-.3.1-.7.3-1,.2-.3.7-.4,1.3-.4s.5,0,.8.1c.2,0,.4.2.5.3.1,0,.2.2.3.4,0,.1,0,.3,0,.4v.4c0,.1,0,.3,0,.4,0,.1-.1.2-.2.3,0,0-.1.2-.2.2h-.2c0,.1-.2.2-.4.2-.2,0-.5.2-.7.3l-.9.3c-.3.1-.6.2-.8.3-.4.2-.8.5-1.1.8-.2.4-.4.9-.4,1.3v.9c0,.3,0,.5.1.8.1.3.3.5.5.8.3.3.6.5,1,.6,1.1.3,2.2.3,3.3,0,.4-.1.7-.3,1-.6.2-.2.4-.5.5-.8,0-.2.1-.5.1-.8v-5.7c0-.3,0-.6-.2-.9-.1-.3-.3-.5-.6-.7"/>
  <path class="st0" d="M31.2,37.2v.2c0,.1,0,.3,0,.4,0,.1-.1.2-.2.3,0,0-.2.2-.3.2-.1,0-.3,0-.4,0h-1.1c0,0-.2,0-.3,0s-.2,0-.3,0-.2,0-.3.2c0,0-.2.2-.2.3v-2c0-.1,0-.2,0-.3,0-.2.1-.3.2-.4.2-.1.3-.2.5-.3.3,0,.6-.1.9-.1.3,0,.6,0,.8.1.2,0,.3.2.5.3s.2.2.2.4c0,.1,0,.2,0,.4v.2h0ZM32.4,35.3c-.3-.3-.6-.5-1-.7-1.2-.4-2.4-.4-3.6,0-.4.2-.7.4-1,.7-.2.2-.3.5-.4.8,0,.2,0,.4,0,.6v5.7c0,.4.1.8.3,1.2.1.2.2.3.4.4.2.2.4.3.6.4.3.1.5.2.8.3.4,0,.8.1,1.1.1s1,0,1.5-.2c.3,0,.6-.2.9-.4.3-.2.5-.5.7-.8.2-.3.2-.6.2-1v-.5h-1.6c0,.2,0,.4,0,.6,0,.2-.2.3-.3.5-.1,0-.3.1-.4.2-.3,0-.5.1-.8.1-.2,0-.4,0-.6,0-.1,0-.3,0-.4-.1-.1,0-.2,0-.3-.2,0,0-.1-.2-.2-.2-.1-.2-.2-.5-.2-.7v-.9c0-.2,0-.3,0-.5,0-.2.2-.3.3-.4.1-.1.2-.2.4-.3.2,0,.3,0,.5,0h1.5c.2,0,.3,0,.5,0,.2,0,.3,0,.5-.2.2,0,.3-.2.5-.3.3-.2.5-.5.6-.9,0-.2.1-.5.1-.7v-.9c0-.2,0-.4,0-.6,0-.3-.2-.6-.4-.8"/>
  <path class="st0" d="M39.3,38v4.2c0,.1,0,.3,0,.4,0,.2-.1.3-.3.4-.1.1-.3.2-.5.3-.3,0-.5.1-.8.1-.3,0-.5,0-.8-.1-.2,0-.3-.2-.5-.3-.1-.1-.2-.2-.3-.4s0-.3-.1-.5v-4.1c0-.2,0-.4.1-.6,0-.2.2-.3.3-.4.1-.1.3-.2.4-.3.2,0,.4-.2.7-.2l.6-.2c.2,0,.4-.2.6-.2.1,0,.2,0,.3-.1,0,0,0,0,.1-.1s0-.1,0-.2v2.4h0ZM39.3,33.1v.4c0,.1,0,.3,0,.4,0,.1-.1.2-.2.3,0,0-.2.2-.2.2h-.2c0,.1-.2.2-.4.2l-.7.3-.8.3-.8.3c-.5.2-.8.5-1.1.8-.2.4-.4.9-.4,1.3v.4h0v3.9h0v.5c0,.3,0,.6.2.9.1.3.3.5.6.7.3.2.7.4,1,.5.5.1,1,.2,1.5.2,1.1,0,1.9-.2,2.5-.7.2-.2.5-.5.6-.7s.2-.6.2-.9v-11.8h-1.6v2.5h0Z"/>
  <path class="st0" d="M47.7,41.9c0,.4,0,.8-.3,1.1-.2.2-.7.4-1.3.4s-1.1-.1-1.3-.4c-.2-.3-.4-.7-.3-1.1,0-.2,0-.4.1-.6,0-.2.2-.3.3-.4s.3-.2.4-.3c.2,0,.4-.2.7-.2.2,0,.4-.1.6-.2l.6-.2c0,0,.2,0,.3-.1,0,0,0,0,.1-.1,0,0,0-.1,0-.2v2.4h0ZM48.6,35.1c-.5-.5-1.3-.7-2.5-.7-.5,0-1,0-1.5.2-.4,0-.7.3-1,.5-.3.2-.5.5-.6.7-.1.3-.2.6-.2.9v.5h1.6c0-.3.1-.7.3-1,.2-.3.7-.4,1.3-.4s.5,0,.8.1c.2,0,.4.2.5.3.1,0,.2.2.3.4,0,.1,0,.3,0,.4v.4c0,.1,0,.3,0,.4,0,.1-.1.2-.2.3,0,0-.2.2-.2.2h-.2c0,.1-.2.2-.4.2l-.7.3-.9.3c-.3.1-.6.2-.8.3-.4.2-.8.5-1.1.8-.2.4-.4.9-.4,1.3v.9c0,.3,0,.5.1.8,0,.3.3.5.5.8.3.3.6.5,1,.6,1.1.3,2.2.3,3.3,0,.4-.1.7-.3,1-.6.2-.2.4-.5.5-.8,0-.2.1-.5.1-.8v-5.7c0-.3,0-.6-.2-.9s-.3-.5-.6-.7"/>
  <path class="st0" d="M57.4,36.3c-.2-.4-.6-.7-1.1-.8l-.8-.3-.9-.3-.7-.3c-.2,0-.3-.1-.4-.1h-.2c0-.2-.2-.2-.2-.3,0,0-.2-.2-.2-.3,0-.1,0-.3,0-.4v-2.8h-1.6v13.9h1.6v-9c0,0,0,.1,0,.2,0,0,0,0,.1.1,0,0,.2,0,.3.1.2,0,.4.1.6.2.2,0,.4.2.6.2.2,0,.5.2.7.2.2,0,.3.2.5.3.1.1.2.2.3.4,0,.2.1.4.1.6v6.6h1.6v-7c0-.5-.1-.9-.4-1.3"/>
  <path class="st0" d="M57.8,13.1h-1.6v13.9h1.6v-13.9Z"/>
  <path class="st0" d="M33.5,13.1h-1.6v13.9h1.6v-13.9Z"/>
  <path class="st0" d="M51.3,24.4c0,.1,0,.2,0,.4,0,.1-.1.3-.2.4-.1.1-.3.2-.5.3-.3,0-.5.1-.8.1h-9.2c-.3,0-.6,0-.8-.1-.2,0-.3-.2-.5-.3-.1-.1-.2-.2-.2-.4,0-.1,0-.2,0-.4v-7.6h-1.6v11.5c0,.1,0,.2,0,.4,0,.1-.1.3-.2.4-.2.1-.3.2-.5.3-.3,0-.6.1-.9.1v1.4c.7,0,1.3,0,1.9-.3.4-.2.7-.4,1-.7.2-.2.3-.5.4-.7,0-.2,0-.4,0-.6v-1.8c.5.2,1,.2,1.6.2h9.2c.6,0,1.2,0,1.8-.3.4-.1.7-.4,1-.7.2-.2.3-.5.4-.8,0-.2,0-.4,0-.6v-11.6h-1.6v11.3s0,0,0,0Z"/>
  <path class="st0" d="M26.3,24.4c0,.1,0,.2,0,.4,0,.1-.1.3-.2.4-.1.1-.3.2-.5.3-.3,0-.5.1-.8.1h-9.6s0,0,0-.1c0-.2.1-.5.1-.8v-5.7c0-.3,0-.6-.2-.9-.1-.3-.3-.5-.6-.7-.3-.2-.6-.4-1-.5-.5-.1-1-.2-1.5-.2-1.1,0-2,.2-2.5.7-.2.2-.4.5-.6.7-.1.3-.2.6-.2.9v.5h1.6v-.2c0-.1,0-.3,0-.4,0-.1.1-.3.3-.4.1-.1.3-.2.5-.3.3,0,.5-.1.8-.1.6,0,1.1.1,1.3.4s.4.6.3,1v4.7c0,.4,0,.8-.3,1.1-.2.2-.7.3-1.3.3h-3.6s0,1.4,0,1.4h16.2c.6,0,1.2,0,1.8-.3.4-.1.7-.4,1-.7.2-.2.3-.5.4-.8,0-.2,0-.4,0-.6v-7.9h-1.6v7.6h0Z"/>
  <path class="st0" d="M27,15.2c0,0,0-.1,0-.2v-.7c0,0,0-.1,0-.2,0,0,0,0,.3,0s.1,0,.2,0c0,0,0,0,0,0,0,0,0,0,0,0v.3h1v-.4c0-.1,0-.3,0-.4,0-.1-.1-.2-.2-.3-.3-.2-.6-.3-1-.3-.2,0-.4,0-.5,0-.1,0-.3.1-.4.2-.1,0-.2.2-.2.3,0,.1,0,.2,0,.4v1.1h-.5v.9h3.1v-.9h-1.4c0,0-.2,0-.3,0"/>
  <path class="st0" d="M4.9,24.5c0,.1,0,.2,0,.4,0,.1-.1.3-.2.4-.1.1-.3.2-.5.3-.3,0-.6.1-.9.1-.3,0-.6,0-.8-.1-.2,0-.3-.2-.5-.3-.1-.1-.2-.2-.2-.4,0-.1,0-.2,0-.4v-5.1c0-.1,0-.2,0-.4,0-.1.1-.3.2-.4.1-.1.3-.2.5-.3.3,0,.6-.1.8-.1.3,0,.6,0,.9.1.2,0,.4.2.5.3.1.1.2.2.2.4,0,.1,0,.2,0,.4v5.1h0ZM6.1,17.7c-.3-.3-.6-.5-1-.7-1.2-.4-2.4-.4-3.6,0-.4.1-.7.4-1,.7-.2.2-.3.5-.4.8,0,.2,0,.4,0,.6v5.7c0,.2,0,.4,0,.6,0,.3.2.6.4.8.3.3.6.5,1,.7,1.2.4,2.4.4,3.6,0,.4-.1.7-.4,1-.7.2-.2.3-.5.4-.8,0-.2,0-.4,0-.6v-5.7c0-.2,0-.4,0-.6,0-.3-.2-.5-.4-.8"/>
  <path class="st0" d="M5.4,14h-1.6v1.9h1.6v-1.9Z"/>
  <path class="st0" d="M2.8,14h-1.6v1.9h1.6v-1.9Z"/>
  <path class="st0" d="M109.1,29.2v-.8c.2-1,.7-1.9,1.4-2.5s1.7-1,2.7-1h0c.8,0,1.6-.3,2.3-.7s1.2-1.1,1.5-1.9c.3-.8.4-1.6.2-2.4-.2-.8-.6-1.5-1.1-2.1s-1.3-1-2.1-1.1c-.8-.1-1.6,0-2.4.2-.8.3-1.4.8-1.8,1.5s-.7,1.5-.7,2.3c0,1.1-.5,2.1-1.2,2.8s-1.8,1.2-2.9,1.2-2.1-.4-2.9-1.2-1.2-1.8-1.2-2.8-.5-2.1-1.2-2.8-1.8-1.2-2.9-1.2-2.1.4-2.9,1.2-1.2,1.8-1.2,2.8c0,1.1-.4,2.1-1.2,2.9-.8.8-1.8,1.2-2.9,1.2s-2.1-.4-2.9-1.2c-.8-.8-1.2-1.8-1.2-2.9s-.2-1.6-.7-2.3c-.4-.7-1.1-1.2-1.8-1.5-.8-.3-1.6-.4-2.4-.2s-1.5.5-2.1,1.1-1,1.3-1.2,2.1c-.2.8,0,1.6.2,2.4.3.8.8,1.4,1.5,1.9.7.5,1.5.7,2.3.7h0c1,0,2,.4,2.7,1s1.2,1.6,1.4,2.6v.3s0,.4,0,.4h0c0-.1,0,.1,0,.1v.3c-.2,1-.7,1.9-1.4,2.5s-1.7,1-2.7,1h0c-.8,0-1.6.3-2.3.7s-1.2,1.1-1.5,1.9c-.3.8-.4,1.6-.2,2.4.2.8.6,1.5,1.2,2.1s1.3,1,2.1,1.1c.8.2,1.6,0,2.4-.2.8-.3,1.4-.8,1.8-1.5s.7-1.5.7-2.3.1-1.1.3-1.6c.2-.5.5-1,.9-1.3s.8-.7,1.3-.9c.5-.2,1-.3,1.6-.3s1.1.1,1.6.3c.5.2,1,.5,1.3.9s.7.8.9,1.3c.2.5.3,1,.3,1.6,0,.8.2,1.6.7,2.3.4.7,1.1,1.2,1.8,1.5s1.6.4,2.4.2c.8-.2,1.5-.5,2.1-1.1s1-1.3,1.1-2.1c.2-.8,0-1.6-.2-2.4-.3-.8-.8-1.4-1.5-1.9-.7-.5-1.5-.7-2.3-.7h0c-1,0-2-.4-2.7-1s-1.2-1.6-1.4-2.5v-.3s0-.2,0-.2h0c0,.1,0-.2,0-.2v-.3c.2-1,.7-1.9,1.4-2.5.8-.6,1.7-1,2.7-1s1.9.4,2.7,1,1.2,1.6,1.4,2.5v.3s0,.7,0,.7c0,0,0,.1,0,.2,0,0,0,.2,0,.2,0,0,0,.2,0,.2,0,0,0,.1,0,.2,0,0,0,.2,0,.2s0,0,0,.1c0,0,0,.2.1.3,0,0,0,0,0,0,0,0,0,.2.2.3,0,0,0,0,0,0,0,0,.1.2.2.3h0c0,.1.2.2.2.3.8.8,1.8,1.2,2.9,1.2h0c.5,0,1.1.1,1.6.3.5.2,1,.5,1.3.9s.7.8.9,1.3c.2.5.3,1,.3,1.6,0,.8.2,1.6.7,2.3.4.7,1.1,1.2,1.8,1.5.8.3,1.6.4,2.4.2.8-.2,1.5-.5,2.1-1.1s1-1.3,1.1-2.1c.2-.8,0-1.6-.2-2.4-.3-.8-.8-1.4-1.5-1.9-.7-.5-1.5-.7-2.3-.7h0c-1,0-2-.4-2.7-1s-1.2-1.6-1.4-2.5v-.3h0ZM84.3,28.8h0c0,.1,0,0,0,0ZM92.6,29h0c0-.1,0,0,0,0ZM109.1,29.1h0c0-.1,0,0,0,0h0ZM109.1,29h0c0-.1,0,0,0,0ZM100.8,28.8h0c0,.1,0,0,0,0Z"/>
  <path class="st0" d="M91.4,15.3c.6-.6,1-1.3,1.1-2.1.2-.8,0-1.6-.2-2.4-.3-.8-.8-1.4-1.5-1.9-.7-.4-1.5-.7-2.3-.7s-1.6.2-2.3.7c-.7.4-1.2,1.1-1.5,1.9-.3.8-.4,1.6-.2,2.4.2.8.6,1.5,1.1,2.1.8.8,1.8,1.2,2.9,1.2s2.2-.4,2.9-1.2"/>
  <path class="st0" d="M99.6,7.1c.6-.6,1-1.3,1.1-2.1.2-.8,0-1.6-.2-2.4-.3-.8-.8-1.4-1.5-1.9s-1.5-.7-2.3-.7-1.6.2-2.3.7-1.2,1.1-1.5,1.9c-.3.8-.4,1.6-.2,2.4s.6,1.5,1.1,2.1c.4.4.8.7,1.3.9s1,.3,1.6.3,1.1-.1,1.6-.3,1-.5,1.3-.9h0Z"/>
  <path class="st0" d="M102.1,9.5c-.6.6-1,1.3-1.1,2.1-.2.8,0,1.6.2,2.4.3.8.8,1.4,1.5,1.9.7.5,1.5.7,2.3.7s1.6-.2,2.3-.7c.7-.5,1.2-1.1,1.5-1.9.3-.8.4-1.6.2-2.4-.2-.8-.6-1.5-1.1-2.1-.4-.4-.8-.7-1.3-.9s-1-.3-1.6-.3-1.1.1-1.6.3-1,.5-1.3.9h0Z"/>
  <path class="st0" d="M118.5,25.9c-.6.6-1,1.3-1.1,2.1-.2.8,0,1.6.2,2.4.3.8.8,1.4,1.5,1.9.7.5,1.5.7,2.3.7s1.6-.2,2.3-.7c.7-.5,1.2-1.1,1.5-1.9.3-.8.4-1.6.2-2.4-.2-.8-.6-1.5-1.1-2.1-.8-.8-1.8-1.2-2.9-1.2s-2.2.4-2.9,1.2c0,0,0,0,0,0Z"/>
  <path class="st0" d="M102.1,42.5c-.6.6-1,1.3-1.1,2.1-.2.8,0,1.6.2,2.4.3.8.8,1.4,1.5,1.9.7.5,1.5.7,2.3.7s1.6-.2,2.3-.7c.7-.5,1.2-1.1,1.5-1.9.3-.8.4-1.6.2-2.4s-.6-1.5-1.1-2.1c-.4-.4-.8-.7-1.3-.9s-1-.3-1.6-.3-1.1.1-1.6.3c-.5.2-1,.5-1.3.9h0Z"/>
  <path class="st0" d="M93.8,50.8c-.6.6-1,1.3-1.1,2.1-.2.8,0,1.6.2,2.4.3.8.8,1.4,1.5,1.9.7.5,1.5.7,2.3.7s1.6-.2,2.3-.7c.7-.5,1.2-1.1,1.5-1.9.3-.8.4-1.6.2-2.4s-.6-1.5-1.1-2.1c-.4-.4-.8-.7-1.3-.9-.5-.2-1-.3-1.6-.3s-1.1.1-1.6.3c-.5.2-1,.5-1.3.9h0Z"/>
  <path class="st0" d="M74.9,31.8c.6-.6,1-1.3,1.1-2.1.2-.8,0-1.6-.2-2.4-.3-.8-.8-1.4-1.5-1.9-.7-.5-1.5-.7-2.3-.7s-1.6.2-2.3.7c-.7.5-1.2,1.1-1.5,1.9-.3.8-.4,1.6-.2,2.4s.6,1.5,1.1,2.1c.4.4.8.7,1.3.9.5.2,1,.3,1.6.3s1.1-.1,1.6-.3c.5-.2,1-.5,1.3-.9h0Z"/>
  <path class="st0" d="M85.5,42.5c-.6.6-1,1.3-1.1,2.1-.2.8,0,1.6.2,2.4.3.8.8,1.4,1.5,1.9.7.5,1.5.7,2.3.7s1.6-.2,2.3-.7,1.2-1.1,1.5-1.9c.3-.8.4-1.6.2-2.4s-.6-1.5-1.1-2.1c-.4-.4-.8-.7-1.3-.9-.5-.2-1-.3-1.6-.3s-1.1.1-1.6.3c-.5.2-1,.5-1.3.9h0Z"/>
</svg>